<?xml version="1.0" encoding="utf-8"?>
<!-- Generator: Adobe Illustrator 23.0.3, SVG Export Plug-In . SVG Version: 6.00 Build 0)  -->
<svg version="1.1" id="svg115845" xmlns:svg="http://www.w3.org/2000/svg"
	 xmlns="http://www.w3.org/2000/svg" xmlns:xlink="http://www.w3.org/1999/xlink" x="0px" y="0px" viewBox="0 0 638 80"
	 style="enable-background:new 0 0 638 80;" xml:space="preserve">
<style type="text/css">
	.st0{fill:#F80000;}
</style>
<path id="path16197" class="st0" d="M265.6,52h40.7l-21.5-34.6L245.3,80h-18l48-75.1c2.1-3,5.6-4.9,9.4-4.9c3.7,0,7.2,1.8,9.2,4.7
	L342.2,80h-18l-8.5-14h-41.2L265.6,52z M452.1,66V0.8h-15.2v71.6c0,2,0.8,3.9,2.2,5.3c1.5,1.5,3.4,2.3,5.6,2.3h69.5l9-14H452.1z
	 M200,54.3c14.8,0,26.8-11.9,26.8-26.7S214.8,0.8,200,0.8h-66.7V80h15.2V14.7H199c7.1,0,12.8,5.8,12.8,12.8
	c0,7.1-5.7,12.8-12.8,12.8l-43-0.1L201.5,80h22.1l-30.6-25.7H200z M39.6,80C17.7,80,0,62.3,0,40.4C0,18.5,17.7,0.8,39.6,0.8h46
	c21.9,0,39.6,17.8,39.6,39.6c0,21.9-17.7,39.6-39.6,39.6H39.6z M84.6,66c14.2,0,25.6-11.4,25.6-25.6c0-14.2-11.5-25.7-25.6-25.7h-44
	C26.5,14.7,15,26.2,15,40.4C15,54.6,26.5,66,40.6,66H84.6z M374,80c-21.9,0-39.6-17.7-39.6-39.6c0-21.9,17.8-39.6,39.6-39.6h54.7
	l-8.9,14H375c-14.2,0-25.7,11.5-25.7,25.7c0,14.2,11.5,25.6,25.7,25.6h54.9l-9,14H374z M560.3,66c-11.7,0-21.6-7.8-24.7-18.7h65.1
	l9-14h-74.1c3-10.7,13-18.7,24.7-18.7H605l9-14h-54.8c-21.9,0-39.6,17.8-39.6,39.6c0,21.9,17.8,39.6,39.6,39.6h47l9-14H560.3"/>
<path id="path16199" class="st0" d="M622.2,9.2c0-3.9,3.1-7,7-7c3.9,0,7,3.1,7,7c0,3.9-3.1,7-7,7C625.3,16.2,622.2,13.1,622.2,9.2z
	 M629.1,18.1c4.9,0,8.9-4,8.9-8.9s-4-8.9-8.9-8.9c-4.9,0-8.9,4-8.9,8.9S624.3,18.1,629.1,18.1z M628.3,3.9c1.4,0,2,0.1,2.6,0.3
	c1.8,0.6,2,2.1,2,2.8c0,0.1,0,0.4-0.1,0.8c-0.1,0.4-0.3,1.1-1.2,1.7c-0.1,0.1-0.2,0.1-0.4,0.3l2.3,4.1h-2.2l-2-3.8h-1.4v3.8h-2v-10
	H628.3z M629,8.5c0.6-0.1,1.3-0.1,1.6-0.6c0.2-0.3,0.3-0.5,0.3-0.9c0-0.5-0.3-0.9-0.8-1.2c-0.4-0.2-0.9-0.2-1.8-0.2h-0.6v2.9H629"/>
</svg>
