<svg xmlns="http://www.w3.org/2000/svg" viewBox="0 0 480 240"><g fill="none" stroke-width="2"><path stroke="#918f90" d="M279.21 93.73a.46.46 0 0 1-.26-.69c7.17-11.15 23.91-46 13.95-57.95-9.89-11.87-26.67-14.04-41.08-9.29a1.77 1.76 43.1 0 1-.99.03q-12.06-3.21-22.82 2.79a1.07 1.06-49.2 0 1-.91.07c-22.1-8.51-46.98-2.86-43.51 26.5 1.74 14.69 6.27 32.94 14.02 46.22 9.51 16.29 18.92.33 25.24-6.8a.82.79 27.4 0 1 .8-.24l5.88 1.61a.35.35 0 0 1 .22.51c-2.47 4.43-8.01 4.38-12.22 6.18q-2.6 1.1-1.13 3.51c3.96 6.51 15.89 4.22 21.04.7q.41-.27.41.22.14 9.85.93 19.64c.7 8.59 5.97 14.39 14.91 13.6 11.06-.98 14.83-6.56 16.38-16.98q1.32-8.93 2.3-17.94a.48.47 7.4 0 1 .55-.42c7.41 1.25 17.86-.54 22.65-7.06 2.58-3.51-1.04-4.64-3.86-4.31-4.29.5-8.21 1.3-12.5.1" vector-effect="non-scaling-stroke"/><path stroke="#a0bdd1" d="M276.81 89.78c6.01-9.46 22.22-42.97 12.58-53.34-8.02-8.64-20.09-11.02-31.38-8.62q-.49.11-.05.34 14.35 7.43 20.13 22.28c2.25 5.78-.29 12.68 0 18.4.38 7.35 1.79 13.34-1.8 20.42q-.14.27-.02.5a.31.31 0 0 0 .54.02" vector-effect="non-scaling-stroke"/><path stroke="#a0bdd1" d="M235.78 93.33c4.89.33 6.02 5.4 5.84 9.54q-.41 9.26.19 18.52c.7 10.64 3.67 19.24 16.6 14.61q6.21-2.22 7.35-8 2.16-10.92 3.7-28.85c.26-2.98 1.77-4.73 4.26-5.97a.45.44 60.3 0 0 .17-.64c-5.52-8.58-27.05-42.68.58-40.34a.31.3-7.6 0 0 .32-.41c-10.78-28.49-53.26-35.55-56.2 3.47a.3.3 0 0 0 .42.3c7.07-3.15 16.83-5.39 19.51 4.67 3.29 12.4.15 20.75-4.37 32.24a.48.46-71.5 0 0 .3.62q.68.19 1.33.24" vector-effect="non-scaling-stroke"/><path stroke="#a0bdd1" d="M197.94 94.73c1.47 3.4 6.98 14.16 12.05 8.97q3.13-3.21 9.97-11.27a.54.54 0 0 0-.03-.73q-6-6.09-5.57-14.01c.98-17.88-1.51-31.75 9.77-45.91a.35.34 28.3 0 0-.17-.54c-20.1-6.48-40.05-1.99-36.79 24.07q2.53 20.28 10.77 39.42m67.46-37q-1.61 1.13-1.49 3.09c.59 8.89 5.52 17.11 9.77 24.71q.25.44.42-.03 1.74-4.71 1.05-9.78-1.31-9.5.38-19.02a.57.57 0 0 0-.42-.65q-5.38-1.36-9.71 1.68" vector-effect="non-scaling-stroke"/><path stroke="#a0bdd1" d="M232.04 56.91q-1.67-.8-3.51-.57-5.23.67-9.67 3.59a1 1 0 0 0-.45.87q.28 7.12-.27 14.17c-.69 8.87 2.12 15.61 11.78 17.43a.59.59 0 0 0 .67-.38c1.93-5.39 4.86-11.22 5.52-16.41.56-4.35.71-16.41-4.07-18.7m41.43 40.75q-.72 1.53-.44 3.11a.92.92 0 0 0 .74.73q9.51 1.56 17.32-3.64.64-.43-.13-.42-3.5.06-6.97.31-3.76.27-7.06-1.32-2.35-1.13-3.46 1.23m-37.51-.77a1.76 1.76 0 0 0-2.31.58q-4.37 6.68-12.43 7.31a.47.46 16.7 0 0-.35.18l-.2.27a.32.32 0 0 0 .15.49q9.42 3.38 15.88-3.27c1.86-1.9 1.63-4.3-.74-5.56m36.306-38.396a2.83 1.72-10.1 0 0-3.088-1.197 2.83 1.72-10.1 0 0-2.484 2.19 2.83 1.72-10.1 0 0 3.088 1.196 2.83 1.72-10.1 0 0 2.484-2.19" vector-effect="non-scaling-stroke"/><path stroke="#a0bdd1" d="M232.94 59.11q-2.14-1.23-4.54-.7a1.32 1.32 0 0 0-.88 1.89c1.69 3.25 6.96 1.77 5.93-.6a1.27 1.24-86.3 0 0-.51-.59" vector-effect="non-scaling-stroke"/></g><path fill="#231f20" d="M234.71 112.7c-6.59 1.89-14.44 1.81-20.06-2.66a.73.73 0 0 0-.82-.06c-11.91 6.77-18.81-4.32-22.66-13.59q-9.01-21.76-11.1-42.21-.53-5.16.72-11.12c4.88-23.12 27.65-24.32 45.98-17.86a1.14 1.12 40 0 0 .92-.07c7.06-3.83 13.91-4.1 21.73-3.13q2.27.28 4.62-.29c10.71-2.58 22.45-2.08 32.08 3.51 8.92 5.17 14.01 11.39 13.11 22.01-1.34 15.62-6.74 29.98-14.41 43.15q-.61 1.04.58.87c4.33-.65 10.85-2.66 13.6 1.84 2.22 3.64-.35 7.77-3.36 10.05q-8.2 6.22-19.7 5.78a1.07 1.07 0 0 0-1.11 1.07c.11 14.79-2.71 31.4-20.76 33.72-18.33 2.35-18.14-18.76-18.85-30.65a.41.4-9.4 0 0-.51-.36Zm44.5-18.97a.46.46 0 0 1-.26-.69c7.17-11.15 23.91-46 13.95-57.95-9.89-11.87-26.67-14.04-41.08-9.29a1.77 1.76 43.1 0 1-.99.03q-12.06-3.21-22.82 2.79a1.07 1.06-49.2 0 1-.91.07c-22.1-8.51-46.98-2.86-43.51 26.5 1.74 14.69 6.27 32.94 14.02 46.22 9.51 16.29 18.92.33 25.24-6.8a.82.79 27.4 0 1 .8-.24l5.88 1.61a.35.35 0 0 1 .22.51c-2.47 4.43-8.01 4.38-12.22 6.18q-2.6 1.1-1.13 3.51c3.96 6.51 15.89 4.22 21.04.7q.41-.27.41.22.14 9.85.93 19.64c.7 8.59 5.97 14.39 14.91 13.6 11.06-.98 14.83-6.56 16.38-16.98q1.32-8.93 2.3-17.94a.48.47 7.4 0 1 .55-.42c7.41 1.25 17.86-.54 22.65-7.06 2.58-3.51-1.04-4.64-3.86-4.31-4.29.5-8.21 1.3-12.5.1Z"/><path fill="#fff" d="M279.21 93.73c4.29 1.2 8.21.4 12.5-.1 2.82-.33 6.44.8 3.86 4.31-4.79 6.52-15.24 8.31-22.65 7.06a.48.47 7.4 0 0-.55.42q-.98 9.01-2.3 17.94c-1.55 10.42-5.32 16-16.38 16.98-8.94.79-14.21-5.01-14.91-13.6q-.79-9.79-.93-19.64 0-.49-.41-.22c-5.15 3.52-17.08 5.81-21.04-.7q-1.47-2.41 1.13-3.51c4.21-1.8 9.75-1.75 12.22-6.18a.35.35 0 0 0-.22-.51l-5.88-1.61a.82.79 27.4 0 0-.8.24c-6.32 7.13-15.73 23.09-25.24 6.8-7.75-13.28-12.28-31.53-14.02-46.22-3.47-29.36 21.41-35.01 43.51-26.5a1.07 1.06-49.2 0 0 .91-.07q10.76-6 22.82-2.79a1.77 1.76 43.1 0 0 .99-.03c14.41-4.75 31.19-2.58 41.08 9.29 9.96 11.95-6.78 46.8-13.95 57.95a.46.46 0 0 0 .26.69Zm-2.4-3.95c6.01-9.46 22.22-42.97 12.58-53.34-8.02-8.64-20.09-11.02-31.38-8.62q-.49.11-.05.34 14.35 7.43 20.13 22.28c2.25 5.78-.29 12.68 0 18.4.38 7.35 1.79 13.34-1.8 20.42q-.14.27-.02.5a.31.31 0 0 0 .54.02Zm-41.03 3.55c4.89.33 6.02 5.4 5.84 9.54q-.41 9.26.19 18.52c.7 10.64 3.67 19.24 16.6 14.61q6.21-2.22 7.35-8 2.16-10.92 3.7-28.85c.26-2.98 1.77-4.73 4.26-5.97a.45.44 60.3 0 0 .17-.64c-5.52-8.58-27.05-42.68.58-40.34a.31.3-7.6 0 0 .32-.41c-10.78-28.49-53.26-35.55-56.2 3.47a.3.3 0 0 0 .42.3c7.07-3.15 16.83-5.39 19.51 4.67 3.29 12.4.15 20.75-4.37 32.24a.48.46-71.5 0 0 .3.62q.68.19 1.33.24Zm-37.84 1.4c1.47 3.4 6.98 14.16 12.05 8.97q3.13-3.21 9.97-11.27a.54.54 0 0 0-.03-.73q-6-6.09-5.57-14.01c.98-17.88-1.51-31.75 9.77-45.91a.35.34 28.3 0 0-.17-.54c-20.1-6.48-40.05-1.99-36.79 24.07q2.53 20.28 10.77 39.42Zm67.46-37q-1.61 1.13-1.49 3.09c.59 8.89 5.52 17.11 9.77 24.71q.25.44.42-.03 1.74-4.71 1.05-9.78-1.31-9.5.38-19.02a.57.57 0 0 0-.42-.65q-5.38-1.36-9.71 1.68Zm-33.36-.82q-1.67-.8-3.51-.57-5.23.67-9.67 3.59a1 1 0 0 0-.45.87q.28 7.12-.27 14.17c-.69 8.87 2.12 15.61 11.78 17.43a.59.59 0 0 0 .67-.38c1.93-5.39 4.86-11.22 5.52-16.41.56-4.35.71-16.41-4.07-18.7Zm41.43 40.75q-.72 1.53-.44 3.11a.92.92 0 0 0 .74.73q9.51 1.56 17.32-3.64.64-.43-.13-.42-3.5.06-6.97.31-3.76.27-7.06-1.32-2.35-1.13-3.46 1.23Zm-37.51-.77a1.76 1.76 0 0 0-2.31.58q-4.37 6.68-12.43 7.31a.47.46 16.7 0 0-.35.18l-.2.27a.32.32 0 0 0 .15.49q9.42 3.38 15.88-3.27c1.86-1.9 1.63-4.3-.74-5.56Z"/><path fill="#417ba2" d="M289.39 36.44c9.64 10.37-6.57 43.88-12.58 53.34a.31.31 0 0 1-.54-.02q-.12-.23.02-.5c3.59-7.08 2.18-13.07 1.8-20.42-.29-5.72 2.25-12.62 0-18.4q-5.78-14.85-20.13-22.28-.44-.23.05-.34c11.29-2.4 23.36-.02 31.38 8.62Z"/><path fill="#417ba2" d="M235.78 93.33q-.65-.05-1.33-.24a.48.46-71.5 0 1-.3-.62c4.52-11.49 7.66-19.84 4.37-32.24-2.68-10.06-12.44-7.82-19.51-4.67a.3.3 0 0 1-.42-.3c2.94-39.02 45.42-31.96 56.2-3.47a.31.3-7.6 0 1-.32.41c-27.63-2.34-6.1 31.76-.58 40.34a.45.44 60.3 0 1-.17.64c-2.49 1.24-4 2.99-4.26 5.97q-1.54 17.93-3.7 28.85-1.14 5.78-7.35 8c-12.93 4.63-15.9-3.97-16.6-14.61q-.6-9.26-.19-18.52c.18-4.14-.95-9.21-5.84-9.54Z"/><path fill="#417ba2" d="M209.99 103.7c-5.07 5.19-10.58-5.57-12.05-8.97q-8.24-19.14-10.77-39.42c-3.26-26.06 16.69-30.55 36.79-24.07a.35.34 28.3 0 1 .17.54c-11.28 14.16-8.79 28.03-9.77 45.91q-.43 7.92 5.57 14.01a.54.54 0 0 1 .03.73q-6.84 8.06-9.97 11.27Zm55.41-45.97q4.33-3.04 9.71-1.68a.57.57 0 0 1 .42.65q-1.69 9.52-.38 19.02.69 5.07-1.05 9.78-.17.47-.42.03c-4.25-7.6-9.18-15.82-9.77-24.71q-.12-1.96 1.49-3.09Zm6.866.764a2.83 1.72-10.1 0 0-3.088-1.197 2.83 1.72-10.1 0 0-2.484 2.19 2.83 1.72-10.1 0 0 3.088 1.196 2.83 1.72-10.1 0 0 2.484-2.19Z"/><path fill="#417ba2" d="M232.04 56.91c4.78 2.29 4.63 14.35 4.07 18.7-.66 5.19-3.59 11.02-5.52 16.41a.59.59 0 0 1-.67.38c-9.66-1.82-12.47-8.56-11.78-17.43q.55-7.05.27-14.17a1 1 0 0 1 .45-.87q4.44-2.92 9.67-3.59 1.84-.23 3.51.57Zm.9 2.2q-2.14-1.23-4.54-.7a1.32 1.32 0 0 0-.88 1.89c1.69 3.25 6.96 1.77 5.93-.6a1.27 1.24-86.3 0 0-.51-.59Z"/><ellipse fill="#fff" rx="2.83" ry="1.72" transform="rotate(-10.1 468.514 -1495.264)"/><path fill="#fff" d="M232.94 59.11a1.27 1.24-86.3 0 1 .51.59c1.03 2.37-4.24 3.85-5.93.6a1.32 1.32 0 0 1 .88-1.89q2.4-.53 4.54.7Z"/><path fill="#417ba2" d="M273.47 97.66q1.11-2.36 3.46-1.23 3.3 1.59 7.06 1.32 3.47-.25 6.97-.31.77-.01.13.42-7.81 5.2-17.32 3.64a.92.92 0 0 1-.74-.73q-.28-1.58.44-3.11Zm-37.51-.77c2.37 1.26 2.6 3.66.74 5.56q-6.46 6.65-15.88 3.27a.32.32 0 0 1-.15-.49l.2-.27a.47.46 16.7 0 1 .35-.18q8.06-.63 12.43-7.31a1.76 1.76 0 0 1 2.31-.58Zm61.59 64.4c1.25-14.04 23.57-12.35 32.67-10.79q11.99 2.07 13.39 13.61a.54.52 85.5 0 1-.5.6l-5.53.19a.49.49 0 0 1-.5-.48c-.22-12.4-17.44-11.93-25.83-10.14-9.44 2.02-10.93 14.06-1.07 16.31q9.35 2.13 18.81 3.7c7.32 1.22 16.26 3.5 16.25 12.99 0 7.95-4.65 11.76-12.13 13.59-12.36 3.03-37.81 2.74-37.49-15.85a.53.53 0 0 1 .53-.52h5a.67.66 87.1 0 1 .66.6c1.15 10.44 8.78 12.59 18.16 13.02 6.82.32 17.09-.09 18.72-8.68 1.23-6.48-3.16-9.12-9.01-10.21q-9.3-1.74-18.56-3.61c-9-1.83-14.47-4.3-13.57-14.33Zm103.04 34.82 8.28 5.59a.51.51 0 0 1 .05.8l-3.01 2.7a.78.77 41 0 1-.96.06l-8.28-5.73a1.07 1.06 52.3 0 0-.96-.13c-17.53 6.28-44.26 3.37-47.91-19.27-2.44-15.15 6.42-26.32 20.74-29.59 18.83-4.29 41.31 2.77 41.34 25.37.02 8.26-2.76 14.86-9.3 19.69a.31.31 0 0 0 .01.51Zm2.98-16.1c4.72-32.73-44.89-34.25-49.33-10.76-6.72 35.49 45.39 38.13 49.33 10.76Z"/><path fill="#231f20" d="M55.71 150.48c10.88-.55 20.45 6.5 17.21 18.45-2.52 9.23-10.26 10.41-19.36 10.51q-9.88.11-19.8.12a.54.54 0 0 0-.53.54l.07 20.02a.91.91 0 0 1-.92.91l-4.58-.09a.57.56-89.5 0 1-.55-.57v-49.16a.44.44 0 0 1 .44-.44c9.32-.05 18.68.18 28.02-.29Zm-2.57 4.35q-9.69-.23-19.39-.01a.54.54 0 0 0-.53.54l.11 19.95a.39.39 0 0 0 .39.39q10.72.19 21.59-.08c5.64-.14 10.5-1.89 11.9-7.84q.94-3.97-.73-7.54c-2.47-5.27-7.36-5.26-13.34-5.41Z"/><path fill="#417ba2" d="M420.66 196.75h36.66a.41.41 0 0 1 .41.42l-.13 3.43a.41.41 0 0 1-.41.4h-42.55a.41.41 0 0 1-.41-.41l.03-49.38a.41.41 0 0 1 .4-.41l5.17-.19a.41.41 0 0 1 .42.41v45.32a.41.41 0 0 0 .41.41Z"/><path fill="#231f20" d="M168.28 171.81q-.58 10.71-.39 21.44c.09 5.11 4.7 5.18 8.5 4.55a.54.53 85.4 0 1 .61.53l.01 2.06a.77.77 0 0 1-.61.75c-6.54 1.28-13.39.38-13.39-7.8l-.02-21.17a.79.78-.4 0 0-.8-.78l-5.23.09a.71.71 0 0 1-.72-.71l.01-2.15a.63.62 0 0 1 .63-.62h5.49a.63.62 0 0 0 .63-.62v-9.7a.5.5 0 0 1 .51-.5l3.88.09a.63.62 1 0 1 .61.62v9.61a.5.5 0 0 0 .5.5h7.88a.62.62 0 0 1 .62.63v2.28a.65.64.4 0 1-.66.64l-7.59-.17a.46.46 0 0 0-.47.43Zm-59.72-.37c7.73 5.51 7.42 18.94 1.37 24.97-5.97 5.94-17.54 6.92-25.46 4.65-10.15-2.91-14.4-13.19-11.1-22.74 4.73-13.72 25.26-13.96 35.19-6.88Zm.432 11.602a12.76 12.76 0 0 0-13.024-12.49l-5.859.122A12.76 12.76 0 0 0 77.62 183.7l.049 2.32a12.76 12.76 0 0 0 13.024 12.49l5.859-.123a12.76 12.76 0 0 0 12.49-13.025l-.049-2.32Zm13.538 8.318c.86 9.37 20.14 8.98 24.92 5.06 2.69-2.19 2.55-6.14-.27-8.05q-1.4-.95-4.74-1.37-12.48-1.58-17.93-2.74c-9.19-1.94-7.94-13.58.69-15.93 7.38-2 27.85-3.53 28.04 9.03a.64.63 90 0 1-.63.64h-3.94a.67.66-3.4 0 1-.66-.58c-1.13-8.83-17.52-8.78-22.57-4.93-2.53 1.92-2.85 5.61-.11 7.47 6.87 4.68 28.93-.56 29.54 11.85.61 12.42-22.23 10.74-29.29 9.1q-7.5-1.74-8.54-9.49a.59.59 0 0 1 .59-.67h4.23a.68.67 87.2 0 1 .67.61Zm93.77 3.52c-11.91 9.67-36.94 7.9-36.03-12.18q.57-12.4 14.26-15.02c7.99-1.53 16.16-.83 21.2 5.44q1 1.25.95-.35l-.15-4.11a.63.62-1.3 0 1 .62-.64l3.95-.03a.65.65 0 0 1 .65.65q-.02 15.58-.19 31.11c-.16 13.84-12.31 15.79-23.17 15.08-8.02-.52-14.29-1.7-16.32-10.12a.58.58 0 0 1 .56-.71h3.95a.8.8 0 0 1 .77.59q1.62 5.77 8.16 6.64c7.2.96 17.27 1.23 20.25-6.62 1.02-2.69.72-6.36.9-9.55q.03-.49-.36-.18Zm.054-12.26a11.96 11.96 0 0 0-12.022-11.898l-6.76.036a11.96 11.96 0 0 0-11.897 12.022l.01 2.14a11.96 11.96 0 0 0 12.023 11.898l6.76-.036a11.96 11.96 0 0 0 11.897-12.022l-.01-2.14Zm16.476-9.02q.26-.12.39-.41c2.71-6.18 9.92-6.61 15.65-6.11a.7.69 2.7 0 1 .63.69v3.08a.48.47-85.5 0 1-.55.48c-19.94-3.19-16.47 16.57-16.46 29.03a.64.64 0 0 1-.64.64h-3.72a.62.62 0 0 1-.62-.62l-.03-32a.39.39 0 0 1 .39-.39l4.11.07a.59.58-89 0 1 .57.6l-.16 4.66a.31.3-11.9 0 0 .44.28Zm21.5 12.57c.69 14.67 24.95 17.25 30.13 4.61a.79.77 10.1 0 1 .71-.48l4.32-.05a.48.48 0 0 1 .46.63c-6.15 17.59-42.52 14.85-40.8-8 1.66-22.06 42.18-21.79 41.62 2.09a.54.54 0 0 1-.54.53h-35.26a.64.64 0 0 0-.64.67Zm31.24-4.8c-3.91-15.08-29.15-15.15-30.98.63a.45.44-86.6 0 0 .44.5h29.66a.91.9-7.2 0 0 .88-1.13Z"/></svg>